<svg width="91" height="98" viewBox="0 0 91 98" fill="none" xmlns="http://www.w3.org/2000/svg">
<path d="M34.6962 38.531C35.4207 39.8074 36.1812 41.0655 36.8445 42.373C37.0123 42.7037 37.0237 43.2785 36.846 43.5944C34.951 46.9633 33.018 50.3113 31.0468 53.6362C30.8588 53.9533 30.3436 54.2553 29.9767 54.2596C26.1461 54.3046 22.3145 54.3077 18.4841 54.2568C18.0869 54.2515 17.5313 53.9203 17.3267 53.5756C15.3733 50.2851 13.4623 46.9687 11.5954 43.6283C11.4051 43.2878 11.4207 42.6515 11.6142 42.3054C13.4632 38.9993 15.3478 35.7122 17.2931 32.4621C17.5264 32.0723 18.1776 31.7226 18.6414 31.7145C22.1619 31.6527 25.6859 31.7469 29.2044 31.6442C30.4118 31.609 31.0993 31.9832 31.4091 33.1553C31.1486 33.266 30.9517 33.2678 30.7655 33.3133C29.0829 33.7244 28.0626 34.7833 27.9093 36.2659C27.7427 37.877 28.4935 39.2801 29.8514 39.8953C31.315 40.5583 32.6949 40.2442 33.9663 38.9893C34.1659 38.7923 34.4508 38.6816 34.6962 38.531Z" fill="#9C27B0"/>
<path d="M41.4342 21.8316C41.0509 22.0728 40.6703 22.5183 40.2838 22.5236C36.4499 22.5757 32.6147 22.5749 28.7806 22.5254C28.3816 22.5203 27.8205 22.2039 27.6175 21.8633C25.6758 18.606 23.777 15.3225 21.9229 12.0146C21.7248 11.6611 21.7173 11.0077 21.9133 10.6563C23.798 7.27676 25.7328 3.92477 27.697 0.590677C27.8675 0.301323 28.3487 0.0334896 28.6884 0.0300665C32.5614 -0.00896675 36.4351 -0.0126862 40.3079 0.0349031C40.6731 0.0393902 41.1805 0.36923 41.373 0.695044C43.3419 4.02629 45.2748 7.37935 47.1654 10.7556C47.3395 11.0663 47.2876 11.6503 47.1103 11.9856C46.3692 13.387 45.5402 14.7419 44.6353 16.1636C44.3316 16.0272 44.1432 15.8326 43.939 15.6561C42.5536 14.4588 40.5001 14.5101 39.1928 15.7707C37.8968 17.0204 37.6844 19.0115 38.9337 20.3587C39.5638 21.0383 40.5881 21.3523 41.4342 21.8316Z" fill="#00796B"/>
<path d="M49.3511 43.9073C49.6577 42.858 50.3277 42.5486 51.4292 42.5733C54.9133 42.6514 58.4005 42.6285 61.8857 42.5829C62.7222 42.5719 63.2131 42.8116 63.6312 43.5592C65.4253 46.7672 67.2691 49.9477 69.1301 53.1174C69.463 53.6845 69.487 54.1079 69.1457 54.6876C67.2808 57.855 65.4427 61.0386 63.6392 64.2413C63.2665 64.9031 62.8404 65.1305 62.082 65.1217C58.4031 65.0793 54.7232 65.0841 51.044 65.1182C50.3053 65.125 49.8666 64.9433 49.4816 64.2541C47.689 61.0455 45.8396 57.8682 43.9739 54.7014C43.6385 54.1319 43.6021 53.7055 43.963 53.1319C44.7454 51.8884 45.4485 50.595 46.31 49.3015C48.05 51.1071 50.048 51.4315 51.6135 50.1179C52.7799 49.1393 53.1204 47.851 52.7353 46.4498C52.2795 44.7912 50.986 44.082 49.3511 43.9073Z" fill="#005147"/>
<path d="M57.4633 27.8976C56.2981 25.9471 55.1174 24.0056 53.9889 22.0341C53.8589 21.807 53.9189 21.3556 54.0614 21.1053C55.9941 17.7117 57.9444 14.3278 59.9351 10.9681C60.1043 10.6826 60.592 10.4301 60.9343 10.4268C64.8049 10.389 68.6763 10.3858 72.5468 10.4303C72.9171 10.4346 73.4397 10.7298 73.6269 11.0465C75.5946 14.3749 77.5204 17.7283 79.4154 21.0987C79.5789 21.3895 79.5817 21.9313 79.4184 22.2206C77.4991 25.6216 75.5462 29.0039 73.5587 32.3655C73.3876 32.655 72.9092 32.925 72.5708 32.9284C68.7002 32.9677 64.8287 32.9746 60.9585 32.9207C60.5737 32.9153 60.1954 32.4526 59.8249 32.0615C60.0997 31.9528 60.363 31.9944 60.6279 32.015C62.441 32.1561 64.1178 30.7975 64.3941 28.9679C64.6479 27.2873 63.4491 25.5594 61.7407 25.1435C59.8358 24.6798 58.2838 25.6791 57.4633 27.8976Z" fill="#681A75"/>
<path d="M57.4601 27.9947C58.2837 25.6791 59.8358 24.6798 61.7407 25.1436C63.449 25.5595 64.6479 27.2873 64.3941 28.9679C64.1178 30.7975 62.441 32.1561 60.6279 32.015C60.363 31.9944 60.0997 31.9529 59.7789 31.9853C58.381 30.883 58.2955 30.8858 56.9989 32.1815C53.7968 35.3813 50.5867 38.5731 47.4074 41.7953C47.0333 42.1744 46.1789 42.4692 46.7453 43.2697C47.2481 43.9802 47.8877 44.4417 48.8199 43.9668C48.9174 43.9171 49.0472 43.9308 49.2565 43.9112C50.986 44.082 52.2795 44.7912 52.7353 46.4499C53.1204 47.851 52.7799 49.1393 51.6135 50.1179C50.048 51.4315 48.05 51.1071 46.3646 49.241C45.621 47.7397 45.7471 46.3568 47.0018 44.7877C46.5113 44.4365 45.9836 44.1549 45.5761 43.7518C42.4107 40.6194 39.2785 37.4532 36.1019 34.3324C35.8152 34.0507 35.1877 33.7839 34.8927 33.9119C34.2818 34.1768 34.223 34.6529 34.5095 35.4184C34.8362 36.2915 34.6531 37.3554 34.6939 38.4337C34.4508 38.6816 34.1659 38.7923 33.9663 38.9893C32.6949 40.2442 31.3149 40.5583 29.8514 39.8953C28.4935 39.2801 27.7427 37.877 27.9093 36.2659C28.0626 34.7833 29.0829 33.7244 30.7655 33.3133C30.9517 33.2678 31.1486 33.266 31.439 33.2381C32.6321 33.7086 33.4342 33.5158 34.338 32.5859C37.3831 29.4528 40.5702 26.4581 43.6699 23.3772C43.9954 23.0537 44.3684 22.4173 44.2542 22.0865C44.0111 21.3817 43.3443 21.2568 42.6234 21.5815C42.3138 21.721 41.9532 21.7473 41.525 21.8283C40.5881 21.3523 39.5638 21.0383 38.9337 20.3587C37.6844 19.0115 37.8968 17.0204 39.1928 15.7707C40.5001 14.5101 42.5536 14.4588 43.939 15.6561C44.1431 15.8326 44.3316 16.0272 44.6038 16.2376C45.1016 17.4845 45.3996 18.6969 44.7127 19.9456C44.6128 20.1273 44.7099 20.56 44.8711 20.7216C48.4679 24.3281 52.0866 27.913 55.7029 31.5C55.7255 31.5225 55.7745 31.5184 55.8122 31.5271C57.2424 30.8046 57.8383 29.6824 57.4601 27.9947ZM37.587 34.1449C37.9973 34.5552 38.4076 34.9656 38.818 35.3758C40.7331 37.2904 42.6505 39.2026 44.5619 41.1208C45.142 41.703 45.6369 42.015 46.3646 41.2093C47.5298 39.9191 48.8092 38.7319 50.0407 37.5015C51.6473 35.8963 53.2541 34.2913 54.8048 32.7423C51.635 29.5728 48.5498 26.4879 45.4396 23.378C45.4464 23.3754 45.3581 23.383 45.31 23.4309C42.4317 26.2968 39.5451 29.1545 36.7063 32.059C36.506 32.2639 36.5501 32.8592 36.6817 33.1939C36.8114 33.5242 37.1968 33.754 37.587 34.1449ZM50.0115 45.31C49.7414 45.3074 49.4713 45.3067 49.2012 45.3021C48.2839 45.2863 47.5971 45.6933 47.3404 46.5636C47.0832 47.4357 47.0605 48.3759 47.8481 49.0196C48.5049 49.5564 49.2379 49.9548 50.1847 49.5455C51.0676 49.1638 51.5259 48.5074 51.6317 47.6212C51.7639 46.5136 51.1013 45.8312 50.0115 45.31ZM33.272 37.8941C33.353 37.6388 33.4782 37.3883 33.5074 37.1272C33.6229 36.0936 32.9986 34.8861 32.1369 34.6827C31.1708 34.4547 30.2285 34.5005 29.5416 35.4427C28.862 36.375 29.0129 37.2653 29.5897 38.1314C30.4006 39.3492 31.7974 39.3034 33.272 37.8941ZM59.4627 30.2129C61.1265 31.148 62.8118 30.604 63.0389 29.0584C63.2186 27.835 62.7461 26.8786 61.7636 26.4773C60.7167 26.0496 59.857 26.3047 59.1241 27.2603C58.4347 28.1593 58.4942 28.9763 59.4627 30.2129ZM39.9262 16.7377C39.7979 16.9755 39.6618 17.2095 39.5427 17.4518C39.1075 18.3373 39.38 19.1194 39.9814 19.787C40.6531 20.5327 41.5388 20.6609 42.4187 20.262C43.216 19.9006 43.794 19.3387 43.7668 18.309C43.713 16.2721 42.0806 15.5064 39.9262 16.7377Z" fill="#D0D5D4"/>
<path d="M0.432 85.346C0.432 84.6526 0.56 83.9753 0.816 83.314C1.072 82.642 1.44533 82.034 1.936 81.49C2.42667 80.946 3.024 80.514 3.728 80.194C4.432 79.8633 5.232 79.698 6.128 79.698C7.19467 79.698 8.11733 79.9273 8.896 80.386C9.68533 80.8446 10.272 81.442 10.656 82.178L8.64 83.586C8.46933 83.1806 8.24 82.866 7.952 82.642C7.67467 82.418 7.36533 82.2633 7.024 82.178C6.69333 82.082 6.37333 82.034 6.064 82.034C5.56267 82.034 5.12533 82.1353 4.752 82.338C4.37867 82.53 4.06933 82.7913 3.824 83.122C3.57867 83.4526 3.39733 83.8206 3.28 84.226C3.16267 84.6313 3.104 85.0366 3.104 85.442C3.104 85.89 3.17333 86.322 3.312 86.738C3.45067 87.154 3.648 87.522 3.904 87.842C4.17067 88.162 4.49067 88.418 4.864 88.61C5.23733 88.7913 5.648 88.882 6.096 88.882C6.416 88.882 6.74133 88.8286 7.072 88.722C7.40267 88.6153 7.70667 88.45 7.984 88.226C8.272 87.9913 8.49067 87.6873 8.64 87.314L10.784 88.578C10.56 89.1326 10.192 89.6073 9.68 90.002C9.168 90.3966 8.58667 90.7006 7.936 90.914C7.296 91.1166 6.66133 91.218 6.032 91.218C5.21067 91.218 4.45333 91.0526 3.76 90.722C3.07733 90.3806 2.48533 89.9326 1.984 89.378C1.49333 88.8126 1.10933 88.1833 0.832 87.49C0.565333 86.786 0.432 86.0713 0.432 85.346ZM12.1036 91.122V79.762H17.2236C17.757 79.762 18.2476 79.874 18.6956 80.098C19.1543 80.3113 19.549 80.6046 19.8796 80.978C20.2103 81.3406 20.4663 81.7513 20.6476 82.21C20.8396 82.6686 20.9356 83.1326 20.9356 83.602C20.9356 84.0713 20.861 84.5193 20.7116 84.946C20.5623 85.362 20.349 85.7406 20.0716 86.082C19.7943 86.4126 19.4636 86.6846 19.0796 86.898L21.5756 91.122H18.6796L16.5036 87.458H14.7276V91.122H12.1036ZM14.7276 85.17H17.1276C17.341 85.17 17.5276 85.106 17.6876 84.978C17.8583 84.8393 17.997 84.6526 18.1036 84.418C18.2103 84.1833 18.2636 83.9113 18.2636 83.602C18.2636 83.2926 18.1996 83.026 18.0716 82.802C17.9543 82.5673 17.805 82.386 17.6236 82.258C17.4423 82.13 17.2503 82.066 17.0476 82.066H14.7276V85.17ZM27.689 91.218C26.8357 91.218 26.0623 91.058 25.369 90.738C24.6863 90.4073 24.0943 89.97 23.593 89.426C23.1023 88.8713 22.7237 88.2526 22.457 87.57C22.1903 86.8766 22.057 86.162 22.057 85.426C22.057 84.6686 22.1957 83.9486 22.473 83.266C22.761 82.5833 23.1557 81.9753 23.657 81.442C24.169 80.898 24.7717 80.4713 25.465 80.162C26.1583 79.8526 26.9157 79.698 27.737 79.698C28.5797 79.698 29.3423 79.8633 30.025 80.194C30.7183 80.514 31.3103 80.9513 31.801 81.506C32.3023 82.0606 32.6863 82.6846 32.953 83.378C33.2197 84.0606 33.353 84.7593 33.353 85.474C33.353 86.2313 33.2143 86.9513 32.937 87.634C32.6597 88.3166 32.265 88.93 31.753 89.474C31.241 90.0073 30.6383 90.434 29.945 90.754C29.2623 91.0633 28.5103 91.218 27.689 91.218ZM24.729 85.458C24.729 85.8953 24.793 86.322 24.921 86.738C25.049 87.1433 25.2357 87.506 25.481 87.826C25.737 88.146 26.0517 88.402 26.425 88.594C26.7983 88.786 27.225 88.882 27.705 88.882C28.2063 88.882 28.6437 88.786 29.017 88.594C29.3903 88.3913 29.6997 88.1246 29.945 87.794C30.1903 87.4633 30.3717 87.0953 30.489 86.69C30.617 86.274 30.681 85.8526 30.681 85.426C30.681 84.9886 30.617 84.5673 30.489 84.162C30.361 83.7566 30.169 83.394 29.913 83.074C29.657 82.7433 29.3423 82.4873 28.969 82.306C28.5957 82.1246 28.1743 82.034 27.705 82.034C27.2037 82.034 26.7663 82.13 26.393 82.322C26.0303 82.514 25.721 82.7753 25.465 83.106C25.2197 83.426 25.033 83.794 24.905 84.21C24.7877 84.6153 24.729 85.0313 24.729 85.458ZM41.6228 83.09C41.5908 83.0366 41.4788 82.9566 41.2868 82.85C41.0948 82.7326 40.8548 82.61 40.5668 82.482C40.2788 82.354 39.9641 82.242 39.6228 82.146C39.2814 82.05 38.9401 82.002 38.5988 82.002C38.1508 82.002 37.8041 82.082 37.5588 82.242C37.3134 82.3913 37.1908 82.626 37.1908 82.946C37.1908 83.202 37.2814 83.4046 37.4628 83.554C37.6548 83.7033 37.9268 83.8366 38.2788 83.954C38.6308 84.0606 39.0628 84.1886 39.5748 84.338C40.3001 84.53 40.9294 84.7646 41.4628 85.042C41.9961 85.3086 42.4014 85.6553 42.6788 86.082C42.9668 86.5086 43.1108 87.074 43.1108 87.778C43.1108 88.418 42.9934 88.962 42.7587 89.41C42.5241 89.8473 42.2041 90.2046 41.7987 90.482C41.4041 90.7486 40.9508 90.946 40.4388 91.074C39.9268 91.1913 39.3988 91.25 38.8548 91.25C38.3001 91.25 37.7294 91.1966 37.1428 91.09C36.5668 90.9726 36.0121 90.8126 35.4788 90.61C34.9454 90.3966 34.4548 90.1406 34.0068 89.842L35.1588 87.554C35.2014 87.6073 35.3401 87.7086 35.5748 87.858C35.8094 87.9966 36.0974 88.146 36.4388 88.306C36.7908 88.4553 37.1801 88.5886 37.6068 88.706C38.0334 88.8233 38.4654 88.882 38.9028 88.882C39.3721 88.882 39.7188 88.8073 39.9428 88.658C40.1774 88.5086 40.2948 88.3006 40.2948 88.034C40.2948 87.746 40.1721 87.522 39.9268 87.362C39.6921 87.202 39.3668 87.058 38.9508 86.93C38.5454 86.802 38.0761 86.658 37.5428 86.498C36.8494 86.2846 36.2734 86.0446 35.8148 85.778C35.3668 85.5113 35.0308 85.186 34.8068 84.802C34.5934 84.418 34.4868 83.938 34.4868 83.362C34.4868 82.562 34.6734 81.89 35.0468 81.346C35.4308 80.7913 35.9428 80.3753 36.5828 80.098C37.2228 79.81 37.9214 79.666 38.6788 79.666C39.2121 79.666 39.7241 79.73 40.2148 79.858C40.7161 79.986 41.1801 80.146 41.6068 80.338C42.0441 80.53 42.4334 80.722 42.7748 80.914L41.6228 83.09ZM51.4665 83.09C51.4345 83.0366 51.3225 82.9566 51.1305 82.85C50.9385 82.7326 50.6985 82.61 50.4105 82.482C50.1225 82.354 49.8078 82.242 49.4665 82.146C49.1252 82.05 48.7838 82.002 48.4425 82.002C47.9945 82.002 47.6478 82.082 47.4025 82.242C47.1572 82.3913 47.0345 82.626 47.0345 82.946C47.0345 83.202 47.1252 83.4046 47.3065 83.554C47.4985 83.7033 47.7705 83.8366 48.1225 83.954C48.4745 84.0606 48.9065 84.1886 49.4185 84.338C50.1438 84.53 50.7732 84.7646 51.3065 85.042C51.8398 85.3086 52.2452 85.6553 52.5225 86.082C52.8105 86.5086 52.9545 87.074 52.9545 87.778C52.9545 88.418 52.8372 88.962 52.6025 89.41C52.3678 89.8473 52.0478 90.2046 51.6425 90.482C51.2478 90.7486 50.7945 90.946 50.2825 91.074C49.7705 91.1913 49.2425 91.25 48.6985 91.25C48.1438 91.25 47.5732 91.1966 46.9865 91.09C46.4105 90.9726 45.8558 90.8126 45.3225 90.61C44.7892 90.3966 44.2985 90.1406 43.8505 89.842L45.0025 87.554C45.0452 87.6073 45.1838 87.7086 45.4185 87.858C45.6532 87.9966 45.9412 88.146 46.2825 88.306C46.6345 88.4553 47.0238 88.5886 47.4505 88.706C47.8772 88.8233 48.3092 88.882 48.7465 88.882C49.2158 88.882 49.5625 88.8073 49.7865 88.658C50.0212 88.5086 50.1385 88.3006 50.1385 88.034C50.1385 87.746 50.0158 87.522 49.7705 87.362C49.5358 87.202 49.2105 87.058 48.7945 86.93C48.3892 86.802 47.9198 86.658 47.3865 86.498C46.6932 86.2846 46.1172 86.0446 45.6585 85.778C45.2105 85.5113 44.8745 85.186 44.6505 84.802C44.4372 84.418 44.3305 83.938 44.3305 83.362C44.3305 82.562 44.5172 81.89 44.8905 81.346C45.2745 80.7913 45.7865 80.3753 46.4265 80.098C47.0665 79.81 47.7652 79.666 48.5225 79.666C49.0558 79.666 49.5678 79.73 50.0585 79.858C50.5598 79.986 51.0238 80.146 51.4505 80.338C51.8878 80.53 52.2772 80.722 52.6185 80.914L51.4665 83.09ZM54.4943 91.122V79.762H57.1183V88.818H62.6223V91.122H54.4943ZM63.8536 91.122V79.762H66.4776V91.122H63.8536ZM71.2745 84.626V91.122H68.6505V79.762H70.7305L75.9945 86.45V79.762H78.6185V91.122H76.4745L71.2745 84.626ZM80.7911 91.122V79.762H83.4151V84.658L87.5751 79.762H90.5191L86.2631 84.834L90.8071 91.122H87.7991L84.5991 86.562L83.4151 87.778V91.122H80.7911Z" fill="#002824"/>
</svg>
