<svg width="69" height="66" viewBox="0 0 69 66" fill="none" xmlns="http://www.w3.org/2000/svg">
<path d="M23.6962 38.653C24.4207 39.9294 25.1812 41.1875 25.8445 42.495C26.0123 42.8257 26.0237 43.4005 25.846 43.7164C23.951 47.0853 22.018 50.4333 20.0468 53.7582C19.8588 54.0752 19.3436 54.3773 18.9767 54.3816C15.1461 54.4266 11.3145 54.4297 7.48406 54.3788C7.08689 54.3735 6.5313 54.0423 6.32667 53.6976C4.37326 50.407 2.46231 47.0907 0.595386 43.7503C0.405098 43.4098 0.42066 42.7735 0.614218 42.4274C2.46324 39.1213 4.3478 35.8342 6.2931 32.584C6.52636 32.1943 7.17761 31.8446 7.64145 31.8365C11.1619 31.7747 14.6859 31.8689 18.2044 31.7662C19.4118 31.7309 20.0993 32.1052 20.4091 33.2773C20.1486 33.388 19.9517 33.3897 19.7655 33.4352C18.0829 33.8463 17.0626 34.9053 16.9093 36.3879C16.7427 37.999 17.4935 39.4021 18.8514 40.0173C20.315 40.6803 21.6949 40.3662 22.9663 39.1113C23.1659 38.9143 23.4508 38.8036 23.6962 38.653Z" fill="#9C27B0"/>
<path d="M30.4342 21.9536C30.0509 22.1948 29.6703 22.6403 29.2838 22.6455C25.4499 22.6977 21.6147 22.6969 17.7806 22.6474C17.3816 22.6423 16.8205 22.3258 16.6175 21.9852C14.6758 18.728 12.777 15.4445 10.9229 12.1365C10.7248 11.783 10.7173 11.1297 10.9133 10.7783C12.798 7.39874 14.7328 4.04675 16.697 0.712655C16.8675 0.423301 17.3487 0.155468 17.6884 0.152045C21.5614 0.113012 25.4351 0.109293 29.3079 0.156882C29.6731 0.161369 30.1805 0.491209 30.373 0.817023C32.3419 4.14827 34.2748 7.50133 36.1654 10.8775C36.3395 11.1883 36.2876 11.7723 36.1103 12.1076C35.3692 13.509 34.5402 14.8639 33.6353 16.2856C33.3316 16.1492 33.1432 15.9545 32.939 15.7781C31.5536 14.5807 29.5001 14.6321 28.1928 15.8927C26.8968 17.1424 26.6844 19.1335 27.9337 20.4807C28.5638 21.1603 29.5881 21.4743 30.4342 21.9536Z" fill="#00796B"/>
<path d="M38.3511 44.0293C38.6577 42.98 39.3277 42.6705 40.4292 42.6952C43.9133 42.7734 47.4005 42.7505 50.8857 42.7049C51.7222 42.6939 52.2131 42.9336 52.6312 43.6812C54.4253 46.8891 56.2691 50.0696 58.1301 53.2394C58.463 53.8064 58.487 54.2299 58.1457 54.8096C56.2808 57.977 54.4427 61.1606 52.6392 64.3633C52.2665 65.0251 51.8404 65.2524 51.082 65.2437C47.4031 65.2013 43.7232 65.2061 40.044 65.2402C39.3053 65.247 38.8666 65.0653 38.4816 64.376C36.689 61.1675 34.8396 57.9902 32.9739 54.8233C32.6385 54.2539 32.6021 53.8275 32.963 53.2539C33.7454 52.0104 34.4485 50.717 35.31 49.4235C37.05 51.229 39.048 51.5535 40.6135 50.2399C41.7799 49.2612 42.1204 47.9729 41.7353 46.5718C41.2795 44.9131 39.986 44.204 38.3511 44.0293Z" fill="#005147"/>
<path d="M46.4633 28.0196C45.2981 26.0691 44.1174 24.1276 42.9889 22.1561C42.8589 21.929 42.9189 21.4776 43.0614 21.2273C44.9941 17.8337 46.9444 14.4498 48.9351 11.0901C49.1043 10.8046 49.592 10.5521 49.9343 10.5488C53.8049 10.511 57.6763 10.5078 61.5468 10.5523C61.9171 10.5566 62.4397 10.8518 62.6269 11.1685C64.5946 14.4969 66.5204 17.8503 68.4154 21.2207C68.5789 21.5115 68.5817 22.0533 68.4184 22.3426C66.4991 25.7436 64.5462 29.1259 62.5587 32.4875C62.3876 32.777 61.9092 33.047 61.5708 33.0504C57.7002 33.0897 53.8287 33.0966 49.9585 33.0427C49.5737 33.0373 49.1954 32.5745 48.8249 32.1835C49.0997 32.0748 49.363 32.1164 49.6279 32.137C51.441 32.2781 53.1178 30.9194 53.3941 29.0898C53.6479 27.4093 52.4491 25.6814 50.7407 25.2655C48.8358 24.8018 47.2838 25.801 46.4633 28.0196Z" fill="#681A75"/>
<path d="M46.4601 28.1167C47.2837 25.8011 48.8358 24.8018 50.7407 25.2655C52.449 25.6814 53.6479 27.4093 53.3941 29.0898C53.1178 30.9194 51.441 32.2781 49.6279 32.137C49.363 32.1164 49.0997 32.0748 48.7789 32.1073C47.381 31.005 47.2955 31.0077 45.9989 32.3035C42.7968 35.5033 39.5867 38.6951 36.4074 41.9173C36.0333 42.2964 35.1789 42.5912 35.7453 43.3916C36.2481 44.1022 36.8877 44.5637 37.8199 44.0888C37.9174 44.0391 38.0472 44.0528 38.2565 44.0332C39.986 44.204 41.2795 44.9131 41.7353 46.5718C42.1204 47.9729 41.7799 49.2612 40.6135 50.2399C39.048 51.5535 37.05 51.229 35.3646 49.363C34.621 47.8617 34.7471 46.4788 36.0018 44.9097C35.5113 44.5585 34.9836 44.2769 34.5761 43.8737C31.4107 40.7413 28.2785 37.5752 25.1019 34.4544C24.8152 34.1727 24.1877 33.9059 23.8927 34.0339C23.2818 34.2988 23.223 34.7748 23.5095 35.5404C23.8362 36.4135 23.6531 37.4773 23.6939 38.5556C23.4508 38.8036 23.1659 38.9143 22.9663 39.1113C21.6949 40.3662 20.3149 40.6803 18.8514 40.0173C17.4935 39.4021 16.7427 37.999 16.9093 36.3879C17.0626 34.9053 18.0829 33.8463 19.7655 33.4352C19.9517 33.3897 20.1486 33.388 20.439 33.3601C21.6321 33.8306 22.4342 33.6378 23.338 32.7078C26.3831 29.5748 29.5702 26.5801 32.6699 23.4992C32.9954 23.1757 33.3684 22.5393 33.2542 22.2085C33.0111 21.5037 32.3443 21.3788 31.6234 21.7035C31.3138 21.8429 30.9532 21.8693 30.525 21.9503C29.5881 21.4743 28.5638 21.1603 27.9337 20.4807C26.6844 19.1335 26.8968 17.1424 28.1928 15.8927C29.5001 14.6321 31.5536 14.5808 32.939 15.7781C33.1431 15.9546 33.3316 16.1492 33.6038 16.3596C34.1016 17.6065 34.3996 18.8189 33.7127 20.0676C33.6128 20.2492 33.7099 20.6819 33.8711 20.8436C37.4679 24.4501 41.0866 28.035 44.7029 31.622C44.7255 31.6445 44.7745 31.6403 44.8122 31.6491C46.2424 30.9266 46.8383 29.8044 46.4601 28.1167ZM26.587 34.2669C26.9973 34.6772 27.4076 35.0876 27.818 35.4978C29.7331 37.4124 31.6505 39.3246 33.5619 41.2428C34.142 41.825 34.6369 42.137 35.3646 41.3313C36.5298 40.041 37.8092 38.8539 39.0407 37.6235C40.6473 36.0183 42.2541 34.4133 43.8048 32.8643C40.635 29.6948 37.5498 26.6099 34.4396 23.5C34.4464 23.4974 34.3581 23.505 34.31 23.5529C31.4317 26.4187 28.5451 29.2765 25.7063 32.181C25.506 32.3859 25.5501 32.9812 25.6817 33.3159C25.8114 33.6462 26.1968 33.876 26.587 34.2669ZM39.0115 45.4319C38.7414 45.4294 38.4713 45.4287 38.2012 45.424C37.2839 45.4082 36.5971 45.8153 36.3404 46.6856C36.0832 47.5577 36.0605 48.4979 36.8481 49.1416C37.5049 49.6784 38.2379 50.0768 39.1847 49.6675C40.0676 49.2858 40.5259 48.6294 40.6317 47.7432C40.7639 46.6356 40.1013 45.9532 39.0115 45.4319ZM22.272 38.0161C22.353 37.7607 22.4782 37.5103 22.5074 37.2492C22.6229 36.2156 21.9986 35.0081 21.1369 34.8047C20.1708 34.5767 19.2285 34.6225 18.5416 35.5647C17.862 36.497 18.0129 37.3873 18.5897 38.2534C19.4006 39.4712 20.7974 39.4254 22.272 38.0161ZM48.4627 30.3349C50.1265 31.27 51.8118 30.7259 52.0389 29.1804C52.2186 27.9569 51.7461 27.0006 50.7636 26.5993C49.7167 26.1716 48.857 26.4266 48.1241 27.3823C47.4347 28.2813 47.4942 29.0982 48.4627 30.3349ZM28.9262 16.8597C28.7979 17.0975 28.6618 17.3315 28.5427 17.5738C28.1075 18.4593 28.38 19.2414 28.9814 19.909C29.6531 20.6547 30.5388 20.7829 31.4187 20.384C32.216 20.0225 32.794 19.4607 32.7668 18.4309C32.713 16.3941 31.0806 15.6284 28.9262 16.8597Z" fill="#D0D5D4"/>
</svg>
