<svg width="107" height="114" viewBox="0 0 107 114" fill="none" xmlns="http://www.w3.org/2000/svg">
<rect width="107" height="113.122" transform="translate(0 0.243958)" fill="#FEFFFF"/>
<path d="M42.6962 46.775C43.4207 48.0514 44.1812 49.3095 44.8445 50.6169C45.0123 50.9477 45.0237 51.5225 44.846 51.8383C42.951 55.2073 41.018 58.5553 39.0468 61.8802C38.8588 62.1972 38.3436 62.4992 37.9767 62.5036C34.1461 62.5486 30.3145 62.5516 26.4841 62.5007C26.0869 62.4955 25.5313 62.1643 25.3267 61.8196C23.3733 58.529 21.4623 55.2126 19.5954 51.8722C19.4051 51.5318 19.4207 50.8954 19.6142 50.5494C21.4632 47.2433 23.3478 43.9561 25.2931 40.706C25.5264 40.3163 26.1776 39.9666 26.6414 39.9584C30.1619 39.8967 33.6859 39.9909 37.2044 39.8882C38.4118 39.8529 39.0993 40.2272 39.4091 41.3993C39.1486 41.51 38.9517 41.5117 38.7655 41.5572C37.0829 41.9683 36.0626 43.0273 35.9093 44.5099C35.7427 46.121 36.4935 47.5241 37.8514 48.1392C39.315 48.8023 40.6949 48.4882 41.9663 47.2333C42.1659 47.0362 42.4508 46.9256 42.6962 46.775Z" fill="#9C27B0"/>
<path d="M49.4342 30.0755C49.0509 30.3167 48.6703 30.7622 48.2838 30.7675C44.4499 30.8197 40.6147 30.8189 36.7806 30.7694C36.3816 30.7642 35.8205 30.4478 35.6175 30.1072C33.6758 26.85 31.777 23.5665 29.9229 20.2585C29.7248 19.905 29.7173 19.2517 29.9133 18.9003C31.798 15.5207 33.7328 12.1687 35.697 8.83463C35.8675 8.54528 36.3487 8.27745 36.6884 8.27402C40.5614 8.23499 44.4351 8.23127 48.3079 8.27886C48.6731 8.28335 49.1805 8.61319 49.373 8.939C51.3419 12.2702 53.2748 15.6233 55.1654 18.9995C55.3395 19.3103 55.2876 19.8943 55.1103 20.2296C54.3692 21.631 53.5402 22.9859 52.6353 24.4076C52.3316 24.2712 52.1432 24.0765 51.939 23.9001C50.5536 22.7027 48.5001 22.7541 47.1928 24.0147C45.8968 25.2644 45.6844 27.2555 46.9337 28.6027C47.5638 29.2822 48.5881 29.5962 49.4342 30.0755Z" fill="#00796B"/>
<path d="M57.3511 52.1513C57.6577 51.102 58.3277 50.7925 59.4292 50.8172C62.9133 50.8953 66.4005 50.8725 69.8857 50.8268C70.7222 50.8159 71.2131 51.0556 71.6312 51.8032C73.4253 55.0111 75.2691 58.1916 77.1301 61.3614C77.463 61.9284 77.487 62.3519 77.1457 62.9315C75.2808 66.0989 73.4427 69.2826 71.6392 72.4853C71.2665 73.1471 70.8404 73.3744 70.082 73.3657C66.4031 73.3233 62.7232 73.328 59.044 73.3621C58.3053 73.369 57.8666 73.1872 57.4816 72.498C55.689 69.2894 53.8396 66.1122 51.9739 62.9453C51.6385 62.3759 51.6021 61.9495 51.963 61.3759C52.7454 60.1324 53.4485 58.839 54.31 57.5455C56.05 59.351 58.048 59.6755 59.6135 58.3619C60.7799 57.3832 61.1204 56.0949 60.7353 54.6938C60.2795 53.0351 58.986 52.3259 57.3511 52.1513Z" fill="#005147"/>
<path d="M65.4633 36.1416C64.2981 34.1911 63.1174 32.2496 61.9889 30.2781C61.8589 30.0509 61.9189 29.5995 62.0614 29.3493C63.9941 25.9557 65.9444 22.5718 67.9351 19.2121C68.1043 18.9266 68.592 18.6741 68.9343 18.6708C72.8049 18.6329 76.6763 18.6298 80.5468 18.6743C80.9171 18.6785 81.4397 18.9738 81.6269 19.2905C83.5946 22.6189 85.5204 25.9723 87.4154 29.3427C87.5789 29.6335 87.5817 30.1753 87.4184 30.4646C85.4991 33.8656 83.5462 37.2479 81.5587 40.6095C81.3876 40.8989 80.9092 41.169 80.5708 41.1724C76.7002 41.2117 72.8287 41.2185 68.9585 41.1647C68.5737 41.1593 68.1954 40.6965 67.8249 40.3055C68.0997 40.1968 68.363 40.2383 68.6279 40.259C70.441 40.4 72.1178 39.0414 72.3941 37.2118C72.6479 35.5313 71.4491 33.8034 69.7407 33.3875C67.8358 32.9237 66.2838 33.923 65.4633 36.1416Z" fill="#681A75"/>
<path d="M65.4601 36.2387C66.2837 33.923 67.8358 32.9238 69.7407 33.3875C71.449 33.8034 72.6479 35.5313 72.3941 37.2118C72.1178 39.0414 70.441 40.4 68.6279 40.259C68.363 40.2383 68.0997 40.1968 67.7789 40.2293C66.381 39.127 66.2955 39.1297 64.9989 40.4255C61.7968 43.6252 58.5867 46.8171 55.4074 50.0392C55.0333 50.4184 54.1789 50.7132 54.7453 51.5136C55.2481 52.2241 55.8877 52.6857 56.8199 52.2108C56.9174 52.1611 57.0472 52.1747 57.2565 52.1551C58.986 52.326 60.2795 53.0351 60.7353 54.6938C61.1204 56.0949 60.7799 57.3832 59.6135 58.3619C58.048 59.6755 56.05 59.351 54.3646 57.485C53.621 55.9837 53.7471 54.6008 55.0018 53.0316C54.5113 52.6805 53.9836 52.3989 53.5761 51.9957C50.4107 48.8633 47.2785 45.6972 44.1019 42.5763C43.8152 42.2947 43.1877 42.0279 42.8927 42.1558C42.2818 42.4208 42.223 42.8968 42.5095 43.6624C42.8362 44.5355 42.6531 45.5993 42.6939 46.6776C42.4508 46.9256 42.1659 47.0362 41.9663 47.2333C40.6949 48.4882 39.3149 48.8023 37.8514 48.1392C36.4935 47.5241 35.7427 46.121 35.9093 44.5099C36.0626 43.0273 37.0829 41.9683 38.7655 41.5572C38.9517 41.5117 39.1486 41.51 39.439 41.4821C40.6321 41.9526 41.4342 41.7598 42.338 40.8298C45.3831 37.6967 48.5702 34.7021 51.6699 31.6212C51.9954 31.2976 52.3684 30.6612 52.2542 30.3304C52.0111 29.6257 51.3443 29.5008 50.6234 29.8255C50.3138 29.9649 49.9532 29.9913 49.525 30.0723C48.5881 29.5963 47.5638 29.2822 46.9337 28.6027C45.6844 27.2555 45.8968 25.2644 47.1928 24.0147C48.5001 22.7541 50.5536 22.7027 51.939 23.9001C52.1431 24.0765 52.3316 24.2712 52.6038 24.4815C53.1016 25.7285 53.3996 26.9409 52.7127 28.1896C52.6128 28.3712 52.7099 28.8039 52.8711 28.9656C56.4679 32.5721 60.0866 36.1569 63.7029 39.744C63.7255 39.7664 63.7745 39.7623 63.8122 39.7711C65.2424 39.0486 65.8383 37.9264 65.4601 36.2387ZM45.587 42.3889C45.9973 42.7992 46.4076 43.2096 46.818 43.6198C48.7331 45.5344 50.6505 47.4466 52.5619 49.3648C53.142 49.947 53.6369 50.259 54.3646 49.4533C55.5298 48.163 56.8092 46.9759 58.0407 45.7455C59.6473 44.1402 61.2541 42.5353 62.8048 40.9862C59.635 37.8167 56.5498 34.7319 53.4396 31.622C53.4464 31.6194 53.3581 31.627 53.31 31.6749C50.4317 34.5407 47.5451 37.3985 44.7063 40.303C44.506 40.5079 44.5501 41.1032 44.6817 41.4379C44.8114 41.7681 45.1968 41.9979 45.587 42.3889ZM58.0115 53.5539C57.7414 53.5514 57.4713 53.5507 57.2012 53.546C56.2839 53.5302 55.5971 53.9373 55.3404 54.8076C55.0832 55.6796 55.0605 56.6199 55.8481 57.2636C56.5049 57.8004 57.2379 58.1988 58.1847 57.7895C59.0676 57.4078 59.5259 56.7514 59.6317 55.8652C59.7639 54.7576 59.1013 54.0752 58.0115 53.5539ZM41.272 46.1381C41.353 45.8827 41.4782 45.6323 41.5074 45.3712C41.6229 44.3375 40.9986 43.1301 40.1369 42.9267C39.1708 42.6987 38.2285 42.7444 37.5416 43.6867C36.862 44.619 37.0129 45.5093 37.5897 46.3754C38.4006 47.5931 39.7974 47.5474 41.272 46.1381ZM67.4627 38.4568C69.1265 39.392 70.8118 38.8479 71.0389 37.3023C71.2186 36.0789 70.7461 35.1226 69.7636 34.7213C68.7167 34.2936 67.857 34.5486 67.1241 35.5043C66.4347 36.4033 66.4942 37.2202 67.4627 38.4568ZM47.9262 24.9816C47.7979 25.2195 47.6618 25.4535 47.5427 25.6958C47.1075 26.5812 47.38 27.3634 47.9814 28.031C48.6531 28.7766 49.5388 28.9048 50.4187 28.5059C51.216 28.1445 51.794 27.5826 51.7668 26.5529C51.713 24.5161 50.0806 23.7503 47.9262 24.9816Z" fill="#D0D5D4"/>
<path d="M8.432 93.5899C8.432 92.8966 8.56 92.2193 8.816 91.5579C9.072 90.8859 9.44533 90.2779 9.936 89.7339C10.4267 89.1899 11.024 88.7579 11.728 88.4379C12.432 88.1073 13.232 87.9419 14.128 87.9419C15.1947 87.9419 16.1173 88.1713 16.896 88.6299C17.6853 89.0886 18.272 89.6859 18.656 90.4219L16.64 91.8299C16.4693 91.4246 16.24 91.1099 15.952 90.8859C15.6747 90.6619 15.3653 90.5073 15.024 90.4219C14.6933 90.3259 14.3733 90.2779 14.064 90.2779C13.5627 90.2779 13.1253 90.3793 12.752 90.5819C12.3787 90.7739 12.0693 91.0353 11.824 91.3659C11.5787 91.6966 11.3973 92.0646 11.28 92.4699C11.1627 92.8753 11.104 93.2806 11.104 93.6859C11.104 94.1339 11.1733 94.5659 11.312 94.9819C11.4507 95.3979 11.648 95.7659 11.904 96.0859C12.1707 96.4059 12.4907 96.6619 12.864 96.8539C13.2373 97.0353 13.648 97.1259 14.096 97.1259C14.416 97.1259 14.7413 97.0726 15.072 96.9659C15.4027 96.8593 15.7067 96.6939 15.984 96.4699C16.272 96.2353 16.4907 95.9313 16.64 95.5579L18.784 96.8219C18.56 97.3766 18.192 97.8513 17.68 98.2459C17.168 98.6406 16.5867 98.9446 15.936 99.1579C15.296 99.3606 14.6613 99.4619 14.032 99.4619C13.2107 99.4619 12.4533 99.2966 11.76 98.9659C11.0773 98.6246 10.4853 98.1766 9.984 97.6219C9.49333 97.0566 9.10933 96.4273 8.832 95.7339C8.56533 95.0299 8.432 94.3153 8.432 93.5899ZM20.1036 99.3659V88.0059H25.2236C25.757 88.0059 26.2476 88.1179 26.6956 88.3419C27.1543 88.5553 27.549 88.8486 27.8796 89.2219C28.2103 89.5846 28.4663 89.9953 28.6476 90.4539C28.8396 90.9126 28.9356 91.3766 28.9356 91.8459C28.9356 92.3153 28.861 92.7633 28.7116 93.1899C28.5623 93.6059 28.349 93.9846 28.0716 94.3259C27.7943 94.6566 27.4636 94.9286 27.0796 95.1419L29.5756 99.3659H26.6796L24.5036 95.7019H22.7276V99.3659H20.1036ZM22.7276 93.4139H25.1276C25.341 93.4139 25.5276 93.3499 25.6876 93.2219C25.8583 93.0833 25.997 92.8966 26.1036 92.6619C26.2103 92.4273 26.2636 92.1553 26.2636 91.8459C26.2636 91.5366 26.1996 91.2699 26.0716 91.0459C25.9543 90.8113 25.805 90.6299 25.6236 90.5019C25.4423 90.3739 25.2503 90.3099 25.0476 90.3099H22.7276V93.4139ZM35.689 99.4619C34.8357 99.4619 34.0623 99.3019 33.369 98.9819C32.6863 98.6513 32.0943 98.2139 31.593 97.6699C31.1023 97.1153 30.7237 96.4966 30.457 95.8139C30.1903 95.1206 30.057 94.4059 30.057 93.6699C30.057 92.9126 30.1957 92.1926 30.473 91.5099C30.761 90.8273 31.1557 90.2193 31.657 89.6859C32.169 89.1419 32.7717 88.7153 33.465 88.4059C34.1583 88.0966 34.9157 87.9419 35.737 87.9419C36.5797 87.9419 37.3423 88.1073 38.025 88.4379C38.7183 88.7579 39.3103 89.1953 39.801 89.7499C40.3023 90.3046 40.6863 90.9286 40.953 91.6219C41.2197 92.3046 41.353 93.0033 41.353 93.7179C41.353 94.4753 41.2143 95.1953 40.937 95.8779C40.6597 96.5606 40.265 97.1739 39.753 97.7179C39.241 98.2513 38.6383 98.6779 37.945 98.9979C37.2623 99.3073 36.5103 99.4619 35.689 99.4619ZM32.729 93.7019C32.729 94.1393 32.793 94.5659 32.921 94.9819C33.049 95.3873 33.2357 95.7499 33.481 96.0699C33.737 96.3899 34.0517 96.6459 34.425 96.8379C34.7983 97.0299 35.225 97.1259 35.705 97.1259C36.2063 97.1259 36.6437 97.0299 37.017 96.8379C37.3903 96.6353 37.6997 96.3686 37.945 96.0379C38.1903 95.7073 38.3717 95.3393 38.489 94.9339C38.617 94.5179 38.681 94.0966 38.681 93.6699C38.681 93.2326 38.617 92.8113 38.489 92.4059C38.361 92.0006 38.169 91.6379 37.913 91.3179C37.657 90.9873 37.3423 90.7313 36.969 90.5499C36.5957 90.3686 36.1743 90.2779 35.705 90.2779C35.2037 90.2779 34.7663 90.3739 34.393 90.5659C34.0303 90.7579 33.721 91.0193 33.465 91.3499C33.2197 91.6699 33.033 92.0379 32.905 92.4539C32.7877 92.8593 32.729 93.2753 32.729 93.7019ZM49.6228 91.3339C49.5908 91.2806 49.4788 91.2006 49.2868 91.0939C49.0948 90.9766 48.8548 90.8539 48.5668 90.7259C48.2788 90.5979 47.9641 90.4859 47.6228 90.3899C47.2814 90.2939 46.9401 90.2459 46.5988 90.2459C46.1508 90.2459 45.8041 90.3259 45.5588 90.4859C45.3134 90.6353 45.1908 90.8699 45.1908 91.1899C45.1908 91.4459 45.2814 91.6486 45.4628 91.7979C45.6548 91.9473 45.9268 92.0806 46.2788 92.1979C46.6308 92.3046 47.0628 92.4326 47.5748 92.5819C48.3001 92.7739 48.9294 93.0086 49.4628 93.2859C49.9961 93.5526 50.4014 93.8993 50.6788 94.3259C50.9668 94.7526 51.1108 95.3179 51.1108 96.0219C51.1108 96.6619 50.9934 97.2059 50.7587 97.6539C50.5241 98.0913 50.2041 98.4486 49.7987 98.7259C49.4041 98.9926 48.9508 99.1899 48.4388 99.3179C47.9268 99.4353 47.3988 99.4939 46.8548 99.4939C46.3001 99.4939 45.7294 99.4406 45.1428 99.3339C44.5668 99.2166 44.0121 99.0566 43.4788 98.8539C42.9454 98.6406 42.4548 98.3846 42.0068 98.0859L43.1588 95.7979C43.2014 95.8513 43.3401 95.9526 43.5748 96.1019C43.8094 96.2406 44.0974 96.3899 44.4388 96.5499C44.7908 96.6993 45.1801 96.8326 45.6068 96.9499C46.0334 97.0673 46.4654 97.1259 46.9028 97.1259C47.3721 97.1259 47.7188 97.0513 47.9428 96.9019C48.1774 96.7526 48.2948 96.5446 48.2948 96.2779C48.2948 95.9899 48.1721 95.7659 47.9268 95.6059C47.6921 95.4459 47.3668 95.3019 46.9508 95.1739C46.5454 95.0459 46.0761 94.9019 45.5428 94.7419C44.8494 94.5286 44.2734 94.2886 43.8148 94.0219C43.3668 93.7553 43.0308 93.4299 42.8068 93.0459C42.5934 92.6619 42.4868 92.1819 42.4868 91.6059C42.4868 90.8059 42.6734 90.1339 43.0468 89.5899C43.4308 89.0353 43.9428 88.6193 44.5828 88.3419C45.2228 88.0539 45.9214 87.9099 46.6788 87.9099C47.2121 87.9099 47.7241 87.9739 48.2148 88.1019C48.7161 88.2299 49.1801 88.3899 49.6068 88.5819C50.0441 88.7739 50.4334 88.9659 50.7748 89.1579L49.6228 91.3339ZM59.4665 91.3339C59.4345 91.2806 59.3225 91.2006 59.1305 91.0939C58.9385 90.9766 58.6985 90.8539 58.4105 90.7259C58.1225 90.5979 57.8078 90.4859 57.4665 90.3899C57.1252 90.2939 56.7838 90.2459 56.4425 90.2459C55.9945 90.2459 55.6478 90.3259 55.4025 90.4859C55.1572 90.6353 55.0345 90.8699 55.0345 91.1899C55.0345 91.4459 55.1252 91.6486 55.3065 91.7979C55.4985 91.9473 55.7705 92.0806 56.1225 92.1979C56.4745 92.3046 56.9065 92.4326 57.4185 92.5819C58.1438 92.7739 58.7732 93.0086 59.3065 93.2859C59.8398 93.5526 60.2452 93.8993 60.5225 94.3259C60.8105 94.7526 60.9545 95.3179 60.9545 96.0219C60.9545 96.6619 60.8372 97.2059 60.6025 97.6539C60.3678 98.0913 60.0478 98.4486 59.6425 98.7259C59.2478 98.9926 58.7945 99.1899 58.2825 99.3179C57.7705 99.4353 57.2425 99.4939 56.6985 99.4939C56.1438 99.4939 55.5732 99.4406 54.9865 99.3339C54.4105 99.2166 53.8558 99.0566 53.3225 98.8539C52.7892 98.6406 52.2985 98.3846 51.8505 98.0859L53.0025 95.7979C53.0452 95.8513 53.1838 95.9526 53.4185 96.1019C53.6532 96.2406 53.9412 96.3899 54.2825 96.5499C54.6345 96.6993 55.0238 96.8326 55.4505 96.9499C55.8772 97.0673 56.3092 97.1259 56.7465 97.1259C57.2158 97.1259 57.5625 97.0513 57.7865 96.9019C58.0212 96.7526 58.1385 96.5446 58.1385 96.2779C58.1385 95.9899 58.0158 95.7659 57.7705 95.6059C57.5358 95.4459 57.2105 95.3019 56.7945 95.1739C56.3892 95.0459 55.9198 94.9019 55.3865 94.7419C54.6932 94.5286 54.1172 94.2886 53.6585 94.0219C53.2105 93.7553 52.8745 93.4299 52.6505 93.0459C52.4372 92.6619 52.3305 92.1819 52.3305 91.6059C52.3305 90.8059 52.5172 90.1339 52.8905 89.5899C53.2745 89.0353 53.7865 88.6193 54.4265 88.3419C55.0665 88.0539 55.7652 87.9099 56.5225 87.9099C57.0558 87.9099 57.5678 87.9739 58.0585 88.1019C58.5598 88.2299 59.0238 88.3899 59.4505 88.5819C59.8878 88.7739 60.2772 88.9659 60.6185 89.1579L59.4665 91.3339ZM62.4943 99.3659V88.0059H65.1183V97.0619H70.6223V99.3659H62.4943ZM71.8536 99.3659V88.0059H74.4776V99.3659H71.8536ZM79.2745 92.8699V99.3659H76.6505V88.0059H78.7305L83.9945 94.6939V88.0059H86.6185V99.3659H84.4745L79.2745 92.8699ZM88.7911 99.3659V88.0059H91.4151V92.9019L95.5751 88.0059H98.5191L94.2631 93.0779L98.8071 99.3659H95.7991L92.5991 94.8059L91.4151 96.0219V99.3659H88.7911Z" fill="#002824"/>
</svg>
